<svg width="64" height="64" viewBox="0 0 64 64" fill="none" xmlns="http://www.w3.org/2000/svg">
<g filter="url(#filter0_b_16_110)">
<rect width="64" height="64" rx="8" fill="#165DF5" fill-opacity="0.6"/>
<rect x="0.25" y="0.25" width="63.5" height="63.5" rx="7.75" stroke="#165DF5" stroke-opacity="0.4" stroke-width="0.5"/>
</g>
<path d="M44.7409 24.8527C44.7376 24.8466 44.7351 24.8404 44.7317 24.8343C44.7302 24.8318 44.7284 24.8295 44.7269 24.8269C44.5479 24.5198 44.2903 24.266 43.9805 24.0917L32.9806 17.9042C32.6809 17.7369 32.3433 17.649 32.0001 17.649C31.6568 17.649 31.3193 17.7369 31.0195 17.9042L20.0194 24.0917C19.7085 24.2668 19.4501 24.522 19.271 24.8307C19.2691 24.8341 19.2668 24.8371 19.2649 24.8406C19.2618 24.846 19.2596 24.8517 19.2567 24.8572C19.0887 25.1557 19.0003 25.4923 19 25.8348V38.1651C19.0003 38.52 19.0948 38.8684 19.274 39.1746C19.4531 39.4809 19.7104 39.7341 20.0195 39.9083L31.0197 46.0959C31.2967 46.2508 31.6068 46.3374 31.924 46.3486C31.9467 46.3503 31.9694 46.3524 31.9926 46.3526H32.0016C32.0331 46.3526 32.0641 46.3508 32.0949 46.3479C32.4057 46.3341 32.709 46.2478 32.9805 46.0958L43.9805 39.9083C44.2896 39.7342 44.5469 39.481 44.7261 39.1747C44.9052 38.8684 44.9998 38.52 45 38.1651V25.8348C44.9997 25.4906 44.9104 25.1523 44.7409 24.8527ZM32 19.6473L41.968 25.2543L38.1404 27.4288L28.055 21.8664L32 19.6473ZM32.1138 30.8526L22.0474 25.2457L26.0048 23.0196L36.1005 28.5878L32.1138 30.8526ZM33.0152 43.7816L33.1136 32.5849L37.1278 30.3043V35.0638C37.1278 35.329 37.2332 35.5834 37.4207 35.7709C37.6082 35.9585 37.8626 36.0638 38.1278 36.0638C38.393 36.0638 38.6474 35.9585 38.8349 35.7709C39.0224 35.5834 39.1278 35.329 39.1278 35.0638V29.1681L43 26.9682V38.1651L33.0152 43.7816Z" fill="#165DF5"/>
<defs>
<filter id="filter0_b_16_110" x="-20" y="-20" width="104" height="104" filterUnits="userSpaceOnUse" color-interpolation-filters="sRGB">
<feFlood flood-opacity="0" result="BackgroundImageFix"/>
<feGaussianBlur in="BackgroundImage" stdDeviation="10"/>
<feComposite in2="SourceAlpha" operator="in" result="effect1_backgroundBlur_16_110"/>
<feBlend mode="normal" in="SourceGraphic" in2="effect1_backgroundBlur_16_110" result="shape"/>
</filter>
</defs>
</svg>
