<svg width="64" height="64" viewBox="0 0 64 64" fill="none" xmlns="http://www.w3.org/2000/svg">
<g filter="url(#filter0_b_16_112)">
<rect width="64" height="64" rx="8" fill="#30BA0E" fill-opacity="0.2"/>
<rect x="0.25" y="0.25" width="63.5" height="63.5" rx="7.75" stroke="#30BA0E" stroke-opacity="0.4" stroke-width="0.5"/>
</g>
<path d="M26 23V19C26 18.7348 26.1054 18.4804 26.2929 18.2929C26.4804 18.1054 26.7348 18 27 18C27.2652 18 27.5196 18.1054 27.7071 18.2929C27.8946 18.4804 28 18.7348 28 19V23C28 23.2652 27.8946 23.5196 27.7071 23.7071C27.5196 23.8946 27.2652 24 27 24C26.7348 24 26.4804 23.8946 26.2929 23.7071C26.1054 23.5196 26 23.2652 26 23ZM31 24C31.2652 24 31.5196 23.8946 31.7071 23.7071C31.8946 23.5196 32 23.2652 32 23V19C32 18.7348 31.8946 18.4804 31.7071 18.2929C31.5196 18.1054 31.2652 18 31 18C30.7348 18 30.4804 18.1054 30.2929 18.2929C30.1054 18.4804 30 18.7348 30 19V23C30 23.2652 30.1054 23.5196 30.2929 23.7071C30.4804 23.8946 30.7348 24 31 24ZM35 24C35.2652 24 35.5196 23.8946 35.7071 23.7071C35.8946 23.5196 36 23.2652 36 23V19C36 18.7348 35.8946 18.4804 35.7071 18.2929C35.5196 18.1054 35.2652 18 35 18C34.7348 18 34.4804 18.1054 34.2929 18.2929C34.1054 18.4804 34 18.7348 34 19V23C34 23.2652 34.1054 23.5196 34.2929 23.7071C34.4804 23.8946 34.7348 24 35 24ZM47 31V32C46.9984 33.2716 46.5129 34.4949 45.6421 35.4215C44.7713 36.3482 43.5806 36.9087 42.3115 36.9893C41.628 38.9188 40.4654 40.6429 38.933 42H42C42.2652 42 42.5196 42.1054 42.7071 42.2929C42.8946 42.4804 43 42.7348 43 43C43 43.2652 42.8946 43.5196 42.7071 43.7071C42.5196 43.8946 42.2652 44 42 44H35.6026C35.5979 44.0001 35.5931 44.0007 35.5885 44.0007C35.585 44.0007 35.5815 44.0001 35.5779 44H26.3948C26.3892 43.9999 26.3835 44.0002 26.3779 44H20C19.7348 44 19.4804 43.8946 19.2929 43.7071C19.1054 43.5196 19 43.2652 19 43C19 42.7348 19.1054 42.4804 19.2929 42.2929C19.4804 42.1054 19.7348 42 20 42H23.067C21.7914 40.8726 20.7693 39.4876 20.0682 37.9362C19.3672 36.3848 19.0031 34.7024 19 33V27C19 26.7348 19.1054 26.4804 19.2929 26.2929C19.4804 26.1054 19.7348 26 20 26H42C43.3256 26.0015 44.5965 26.5288 45.5339 27.4661C46.4712 28.4035 46.9985 29.6744 47 31ZM45 31C44.9992 30.3799 44.8066 29.7751 44.4485 29.2688C44.0904 28.7625 43.5844 28.3794 43 28.172V33C42.9994 33.6286 42.9492 34.2561 42.8496 34.8767C43.47 34.6927 44.0144 34.3133 44.4019 33.795C44.7893 33.2767 44.9991 32.6471 45 32V31Z" fill="#30BA0E"/>
<defs>
<filter id="filter0_b_16_112" x="-20" y="-20" width="104" height="104" filterUnits="userSpaceOnUse" color-interpolation-filters="sRGB">
<feFlood flood-opacity="0" result="BackgroundImageFix"/>
<feGaussianBlur in="BackgroundImage" stdDeviation="10"/>
<feComposite in2="SourceAlpha" operator="in" result="effect1_backgroundBlur_16_112"/>
<feBlend mode="normal" in="SourceGraphic" in2="effect1_backgroundBlur_16_112" result="shape"/>
</filter>
</defs>
</svg>
