<svg width="64" height="64" viewBox="0 0 64 64" fill="none" xmlns="http://www.w3.org/2000/svg">
<g filter="url(#filter0_b_16_108)">
<rect width="64" height="64" rx="8" fill="#8D0EBA" fill-opacity="0.2"/>
<rect x="0.25" y="0.25" width="63.5" height="63.5" rx="7.75" stroke="#8D0EBA" stroke-opacity="0.4" stroke-width="0.5"/>
</g>
<path d="M32 25C31.7348 25 31.4804 25.1054 31.2929 25.2929C31.1054 25.4804 31 25.7348 31 26V32C31 32.0091 31.0011 32.0179 31.0013 32.0269C31.002 32.0471 31.0026 32.0671 31.0044 32.0872C31.0057 32.1027 31.0078 32.1179 31.0099 32.1332C31.0121 32.1493 31.0143 32.1655 31.0173 32.1815C31.0205 32.1993 31.0245 32.2167 31.0287 32.2341C31.032 32.2476 31.0353 32.2611 31.0391 32.2745C31.0442 32.2927 31.0501 32.3106 31.0563 32.3285C31.0607 32.3411 31.0652 32.3537 31.0701 32.3662C31.0769 32.3833 31.0842 32.4 31.0918 32.4166C31.0978 32.4299 31.1041 32.4431 31.1108 32.4561C31.1183 32.4708 31.1263 32.4853 31.1346 32.4996C31.1429 32.514 31.1514 32.5282 31.1605 32.5421C31.1683 32.5544 31.1766 32.5663 31.185 32.5781C31.1956 32.5931 31.2065 32.6079 31.218 32.6223C31.2263 32.6327 31.2349 32.6428 31.2435 32.6528C31.256 32.6672 31.2687 32.6814 31.282 32.6952C31.2916 32.705 31.3014 32.7144 31.3113 32.7238C31.3244 32.7363 31.3376 32.7486 31.3516 32.7605C31.3638 32.7709 31.3765 32.7808 31.3893 32.7906C31.4017 32.8002 31.414 32.8097 31.4269 32.8188C31.4432 32.8302 31.4601 32.8407 31.477 32.8512C31.4849 32.856 31.492 32.8614 31.5 32.866L36.6962 35.866C36.9258 35.9986 37.1988 36.0346 37.455 35.9659C37.7112 35.8973 37.9296 35.7297 38.0622 35.5C38.1948 35.2703 38.2307 34.9974 38.1621 34.7412C38.0934 34.485 37.9258 34.2666 37.6962 34.134L33 31.4226V26C33 25.7348 32.8946 25.4804 32.7071 25.2929C32.5196 25.1054 32.2652 25 32 25Z" fill="#8D0EBA"/>
<path d="M44.0207 22.4645C43.8894 22.4645 43.7594 22.4903 43.638 22.5406C43.5167 22.5909 43.4065 22.6645 43.3136 22.7574C43.2208 22.8502 43.1471 22.9605 43.0968 23.0818C43.0466 23.2031 43.0207 23.3332 43.0207 23.4645V26.0503L40.4851 23.5147C38.8073 21.8384 36.67 20.6972 34.3437 20.2353C32.0173 19.7734 29.6062 20.0116 27.4152 20.9197C25.2241 21.8279 23.3515 23.3652 22.0341 25.3375C20.7166 27.3097 20.0134 29.6282 20.0134 32C20.0134 34.3718 20.7166 36.6903 22.0341 38.6626C23.3515 40.6348 25.2241 42.1721 27.4152 43.0803C29.6062 43.9885 32.0173 44.2266 34.3437 43.7647C36.67 43.3029 38.8073 42.1616 40.4851 40.4853C40.6727 40.2978 40.778 40.0434 40.778 39.7782C40.778 39.513 40.6727 39.2586 40.4851 39.0711C40.3923 38.9783 40.2821 38.9046 40.1607 38.8543C40.0394 38.8041 39.9094 38.7782 39.7781 38.7782C39.5128 38.7782 39.2585 38.8836 39.071 39.0711C37.6724 40.4696 35.8906 41.422 33.9508 41.8079C32.011 42.1937 30.0003 41.9957 28.1731 41.2388C26.3458 40.4819 24.784 39.2002 23.6852 37.5557C22.5864 35.9112 21.9999 33.9778 21.9999 32C21.9999 30.0222 22.5864 28.0888 23.6852 26.4443C24.784 24.7998 26.3458 23.5181 28.1731 22.7612C30.0003 22.0043 32.011 21.8063 33.9508 22.1921C35.8906 22.578 37.6724 23.5304 39.071 24.9289L41.6065 27.4645H39.0207C38.7555 27.4645 38.5012 27.5698 38.3136 27.7574C38.1261 27.9449 38.0207 28.1993 38.0207 28.4645C38.0207 28.7297 38.1261 28.9841 38.3136 29.1716C38.5012 29.3591 38.7555 29.4645 39.0207 29.4645H44.0204C44.0535 29.4645 44.0866 29.4627 44.1196 29.4595C44.1338 29.4581 44.1475 29.4554 44.1615 29.4534C44.1799 29.4509 44.1982 29.4487 44.2163 29.4451C44.2327 29.4418 44.2486 29.4373 44.2648 29.4332C44.2803 29.4294 44.2958 29.426 44.3111 29.4213C44.3271 29.4165 44.3426 29.4105 44.3583 29.4048C44.3733 29.3994 44.3885 29.3945 44.4034 29.3883C44.4182 29.3822 44.4323 29.375 44.4467 29.3682C44.4618 29.3611 44.4772 29.3543 44.4921 29.3464C44.506 29.3389 44.5193 29.3303 44.5329 29.3222C44.5473 29.3136 44.5618 29.3055 44.5759 29.2961C44.5911 29.2859 44.6055 29.2745 44.6202 29.2635C44.6316 29.255 44.6434 29.2471 44.6545 29.2379C44.7055 29.196 44.7523 29.1492 44.7942 29.0982C44.8031 29.0873 44.8109 29.0758 44.8193 29.0646C44.8305 29.0497 44.842 29.0351 44.8525 29.0195C44.8617 29.0057 44.8697 28.9914 44.8781 28.9772C44.8864 28.9634 44.8951 28.9499 44.9026 28.9357C44.9104 28.9211 44.917 28.9061 44.9241 28.8912C44.9311 28.8765 44.9384 28.8621 44.9446 28.847C44.9506 28.8326 44.9554 28.8178 44.9606 28.8032C44.9665 28.7871 44.9726 28.7712 44.9776 28.7546C44.9821 28.7399 44.9853 28.7249 44.9891 28.7101C44.9933 28.6934 44.998 28.6769 45.0014 28.6598C45.0048 28.6426 45.0068 28.6252 45.0093 28.6079C45.0115 28.5929 45.0143 28.5782 45.0157 28.5631C45.019 28.5303 45.0207 28.4974 45.0207 28.4645V23.4645C45.0207 23.3332 44.9949 23.2031 44.9446 23.0818C44.8944 22.9605 44.8207 22.8502 44.7278 22.7574C44.635 22.6645 44.5247 22.5909 44.4034 22.5406C44.2821 22.4903 44.1521 22.4645 44.0207 22.4645Z" fill="#8D0EBA"/>
<defs>
<filter id="filter0_b_16_108" x="-20" y="-20" width="104" height="104" filterUnits="userSpaceOnUse" color-interpolation-filters="sRGB">
<feFlood flood-opacity="0" result="BackgroundImageFix"/>
<feGaussianBlur in="BackgroundImage" stdDeviation="10"/>
<feComposite in2="SourceAlpha" operator="in" result="effect1_backgroundBlur_16_108"/>
<feBlend mode="normal" in="SourceGraphic" in2="effect1_backgroundBlur_16_108" result="shape"/>
</filter>
</defs>
</svg>
