<svg width="26" height="26" viewBox="0 0 26 26" fill="none" xmlns="http://www.w3.org/2000/svg">
<path d="M13 22.75C18.3848 22.75 22.75 18.3848 22.75 13C22.75 7.61522 18.3848 3.25 13 3.25C7.61522 3.25 3.25 7.61522 3.25 13C3.25 18.3848 7.61522 22.75 13 22.75Z" stroke="#165DF5" stroke-opacity="0.8" stroke-width="2" stroke-miterlimit="10"/>
<path d="M10.754 9.61374C10.8864 9.30059 11.0828 9.01859 11.3306 8.78584C11.5784 8.55309 11.8722 8.37475 12.193 8.26226C12.5138 8.14978 12.8546 8.10564 13.1935 8.13268C13.5324 8.15972 13.8619 8.25734 14.1608 8.41928C14.4597 8.58121 14.7215 8.80388 14.9293 9.07298C15.137 9.34208 15.2862 9.65165 15.3672 9.98183C15.4483 10.312 15.4593 10.6555 15.3998 10.9902C15.3402 11.3249 15.2112 11.6434 15.0212 11.9254V11.9254L10.5625 17.875V17.8744H15.4375" stroke="#165DF5" stroke-opacity="0.8" stroke-width="2" stroke-linecap="round" stroke-linejoin="round"/>
</svg>
