<svg width="26" height="26" viewBox="0 0 26 26" fill="none" xmlns="http://www.w3.org/2000/svg">
<path d="M13 22.75C18.3848 22.75 22.75 18.3848 22.75 13C22.75 7.61522 18.3848 3.25 13 3.25C7.61522 3.25 3.25 7.61522 3.25 13C3.25 18.3848 7.61522 22.75 13 22.75Z" stroke="black" stroke-opacity="0.1" stroke-width="2" stroke-miterlimit="10"/>
<path d="M10.5623 8.53046H15.4373L12.5941 12.5938C13.0618 12.5938 13.5222 12.7091 13.9347 12.9295C14.3471 13.15 14.6988 13.4688 14.9586 13.8576C15.2185 14.2464 15.3784 14.6934 15.4242 15.1588C15.47 15.6242 15.4004 16.0937 15.2214 16.5258C15.0425 16.9578 14.7597 17.3391 14.3982 17.6358C14.0367 17.9324 13.6076 18.1354 13.1489 18.2266C12.6903 18.3178 12.2162 18.2946 11.7687 18.1588C11.3211 18.023 10.914 17.779 10.5833 17.4483" stroke="black" stroke-opacity="0.1" stroke-width="2" stroke-linecap="round" stroke-linejoin="round"/>
</svg>
